<svg width="17" height="16" viewBox="0 0 17 16" fill="none" xmlns="http://www.w3.org/2000/svg">
<g id="Frame 6188">
<path id="Subtract" fill-rule="evenodd" clip-rule="evenodd" d="M8.5 14C11.8137 14 14.5 11.3137 14.5 8C14.5 4.68629 11.8137 2 8.5 2C5.18629 2 2.5 4.68629 2.5 8C2.5 11.3137 5.18629 14 8.5 14ZM9.07774 5.7022C9.05168 5.71469 9.02577 5.72614 9 5.73659V3H8V5.6952C7.56122 5.49605 7.16632 5.09809 6.91603 4.72266L6.08398 5.27736C6.45014 5.82659 7.14117 6.54335 8.0314 6.76073C8.49352 6.87358 9.00013 6.84821 9.50978 6.60406C10.0113 6.36378 10.4822 5.9281 10.916 5.27736L10.084 4.72266C9.71782 5.27191 9.372 5.56123 9.07774 5.7022Z" fill="#F5535E"/>
</g>
</svg>
