<svg width="16" height="16" viewBox="0 0 16 16" fill="none" xmlns="http://www.w3.org/2000/svg">
<g id="Frame 6191">
<path id="Subtract" fill-rule="evenodd" clip-rule="evenodd" d="M8.67241 3.87979C9.89141 2.7094 11.8667 2.7094 13.0857 3.87979C14.2648 5.01101 14.3034 6.82413 13.2015 8H10.4456L9.55014 7.00576L8.51484 8.44258L6.86484 6L5.42374 8H2.80034C1.69673 6.82426 1.73447 5.01006 2.91356 3.87713C4.13256 2.70762 6.10882 2.70762 7.32782 3.87713L8.00104 4.52439L8.67241 3.87979ZM3.43032 8.61065L3.5877 8.76175L3.58678 8.76264L8.00104 13L12.5719 8.61065H9.85436L9.64986 8.38359L8.48516 10L6.83516 7.55742L6.07626 8.61065H3.43032Z" fill="#F57D14"/>
</g>
</svg>
