<svg width="24" height="24" viewBox="0 0 24 24" fill="none" xmlns="http://www.w3.org/2000/svg">
<g id="NavigationIcon">
<path id="Icon shape" fill-rule="evenodd" clip-rule="evenodd" d="M13.7375 12.6767L11.324 10.2632L14.6435 9.35724L13.7375 12.6767ZM10.2635 11.3237L12.677 13.7372L9.35749 14.6432L10.2635 11.3237ZM7.21849 16.7807L14.732 14.7317L16.781 7.21824L9.26899 9.26874L7.21849 16.7807ZM12.0005 19.8002C7.69999 19.8002 4.20049 16.3007 4.20049 12.0002C4.20049 7.69974 7.69999 4.20024 12.0005 4.20024C16.301 4.20024 19.8005 7.69974 19.8005 12.0002C19.8005 16.3007 16.301 19.8002 12.0005 19.8002ZM12.0005 2.25024C6.61549 2.25024 2.25049 6.61524 2.25049 12.0002C2.25049 17.3852 6.61549 21.7502 12.0005 21.7502C17.3855 21.7502 21.7505 17.3852 21.7505 12.0002C21.7505 6.61524 17.3855 2.25024 12.0005 2.25024Z" fill="#252730"/>
</g>
</svg>
