<svg width="24" height="24" viewBox="0 0 24 24" fill="none" xmlns="http://www.w3.org/2000/svg">
<path fill-rule="evenodd" clip-rule="evenodd" d="M16.473 7.46826C16.473 9.93126 14.469 11.9353 12.0045 11.9353C9.54004 11.9353 7.53604 9.93126 7.53604 7.46826C7.53604 5.00376 9.54004 2.99976 12.0045 2.99976C14.469 2.99976 16.473 5.00376 16.473 7.46826ZM14.5215 7.46826C14.5215 6.07926 13.3935 4.95126 12.0045 4.95126C10.6155 4.95126 9.48754 6.07926 9.48754 7.46826C9.48754 8.85725 10.6155 9.98376 12.0045 9.98376C13.3935 9.98376 14.5215 8.85725 14.5215 7.46826ZM12.005 15.2102C8.50399 15.2102 5.53099 16.9757 5.04949 19.1822H18.959C18.4775 16.9757 15.506 15.2102 12.005 15.2102ZM3.00049 19.7957C3.00049 16.1912 7.03999 13.2587 12.005 13.2587C16.9685 13.2587 21.0095 16.1912 21.0095 19.7957V21.1352H19.058V21.1337H4.95199V21.1352H3.00049V19.7957Z" fill="#3E404C"/>
</svg>
